<mxfile host="app.diagrams.net" modified="2023-11-10T20:57:14.516Z" agent="Mozilla/5.0 (Windows NT 10.0; Win64; x64) AppleWebKit/537.36 (KHTML, like Gecko) Chrome/119.0.0.0 Safari/537.36" etag="Jfst__TYPLRNU4yCOOgN" version="22.1.0" type="github">
  <diagram id="C5RBs43oDa-KdzZeNtuy" name="Page-1">
    <mxGraphModel dx="2261" dy="800" grid="1" gridSize="10" guides="1" tooltips="1" connect="1" arrows="1" fold="1" page="1" pageScale="1" pageWidth="827" pageHeight="1169" math="0" shadow="0">
      <root>
        <mxCell id="WIyWlLk6GJQsqaUBKTNV-0" />
        <mxCell id="WIyWlLk6GJQsqaUBKTNV-1" parent="WIyWlLk6GJQsqaUBKTNV-0" />
        <mxCell id="AzHufuIv4rGmuMpHbdiP-5" value="" style="edgeStyle=orthogonalEdgeStyle;rounded=0;orthogonalLoop=1;jettySize=auto;html=1;" edge="1" parent="WIyWlLk6GJQsqaUBKTNV-1" source="WIyWlLk6GJQsqaUBKTNV-3" target="AzHufuIv4rGmuMpHbdiP-4">
          <mxGeometry relative="1" as="geometry" />
        </mxCell>
        <mxCell id="AzHufuIv4rGmuMpHbdiP-8" value="" style="edgeStyle=orthogonalEdgeStyle;rounded=0;orthogonalLoop=1;jettySize=auto;html=1;" edge="1" parent="WIyWlLk6GJQsqaUBKTNV-1" source="WIyWlLk6GJQsqaUBKTNV-3" target="AzHufuIv4rGmuMpHbdiP-7">
          <mxGeometry relative="1" as="geometry" />
        </mxCell>
        <mxCell id="AzHufuIv4rGmuMpHbdiP-14" value="" style="edgeStyle=orthogonalEdgeStyle;rounded=0;orthogonalLoop=1;jettySize=auto;html=1;" edge="1" parent="WIyWlLk6GJQsqaUBKTNV-1" source="WIyWlLk6GJQsqaUBKTNV-3" target="AzHufuIv4rGmuMpHbdiP-13">
          <mxGeometry relative="1" as="geometry" />
        </mxCell>
        <mxCell id="WIyWlLk6GJQsqaUBKTNV-3" value="Form the Varangian Guard" style="rounded=1;whiteSpace=wrap;html=1;fontSize=12;glass=0;strokeWidth=1;shadow=0;" parent="WIyWlLk6GJQsqaUBKTNV-1" vertex="1">
          <mxGeometry x="340" y="100" width="120" height="40" as="geometry" />
        </mxCell>
        <mxCell id="AzHufuIv4rGmuMpHbdiP-20" value="" style="edgeStyle=orthogonalEdgeStyle;rounded=0;orthogonalLoop=1;jettySize=auto;html=1;" edge="1" parent="WIyWlLk6GJQsqaUBKTNV-1" source="AzHufuIv4rGmuMpHbdiP-2" target="AzHufuIv4rGmuMpHbdiP-19">
          <mxGeometry relative="1" as="geometry" />
        </mxCell>
        <mxCell id="AzHufuIv4rGmuMpHbdiP-2" value="Restore the Roman Legion" style="rounded=1;whiteSpace=wrap;html=1;" vertex="1" parent="WIyWlLk6GJQsqaUBKTNV-1">
          <mxGeometry x="-150" y="90" width="120" height="60" as="geometry" />
        </mxCell>
        <mxCell id="AzHufuIv4rGmuMpHbdiP-32" value="" style="edgeStyle=orthogonalEdgeStyle;rounded=0;orthogonalLoop=1;jettySize=auto;html=1;" edge="1" parent="WIyWlLk6GJQsqaUBKTNV-1" source="AzHufuIv4rGmuMpHbdiP-3" target="AzHufuIv4rGmuMpHbdiP-31">
          <mxGeometry relative="1" as="geometry" />
        </mxCell>
        <mxCell id="AzHufuIv4rGmuMpHbdiP-34" value="" style="edgeStyle=orthogonalEdgeStyle;rounded=0;orthogonalLoop=1;jettySize=auto;html=1;" edge="1" parent="WIyWlLk6GJQsqaUBKTNV-1" source="AzHufuIv4rGmuMpHbdiP-3" target="AzHufuIv4rGmuMpHbdiP-33">
          <mxGeometry relative="1" as="geometry" />
        </mxCell>
        <mxCell id="AzHufuIv4rGmuMpHbdiP-3" value="Reclaim Justinian Borders" style="rounded=1;whiteSpace=wrap;html=1;" vertex="1" parent="WIyWlLk6GJQsqaUBKTNV-1">
          <mxGeometry x="-600" y="385" width="120" height="60" as="geometry" />
        </mxCell>
        <mxCell id="AzHufuIv4rGmuMpHbdiP-4" value="Current_Date &amp;gt;= 879&lt;br&gt;&lt;br&gt;Holds e_Byzantium&lt;br&gt;&lt;br&gt;Gold 500" style="shape=document;whiteSpace=wrap;html=1;boundedLbl=1;rounded=1;glass=0;strokeWidth=1;shadow=0;" vertex="1" parent="WIyWlLk6GJQsqaUBKTNV-1">
          <mxGeometry x="550" y="65" width="120" height="110" as="geometry" />
        </mxCell>
        <mxCell id="AzHufuIv4rGmuMpHbdiP-12" value="" style="edgeStyle=orthogonalEdgeStyle;rounded=0;orthogonalLoop=1;jettySize=auto;html=1;" edge="1" parent="WIyWlLk6GJQsqaUBKTNV-1" source="AzHufuIv4rGmuMpHbdiP-7" target="AzHufuIv4rGmuMpHbdiP-11">
          <mxGeometry relative="1" as="geometry" />
        </mxCell>
        <mxCell id="AzHufuIv4rGmuMpHbdiP-16" value="" style="edgeStyle=orthogonalEdgeStyle;rounded=0;orthogonalLoop=1;jettySize=auto;html=1;" edge="1" parent="WIyWlLk6GJQsqaUBKTNV-1" source="AzHufuIv4rGmuMpHbdiP-7" target="AzHufuIv4rGmuMpHbdiP-15">
          <mxGeometry relative="1" as="geometry" />
        </mxCell>
        <mxCell id="AzHufuIv4rGmuMpHbdiP-22" value="" style="edgeStyle=orthogonalEdgeStyle;rounded=0;orthogonalLoop=1;jettySize=auto;html=1;" edge="1" parent="WIyWlLk6GJQsqaUBKTNV-1" source="AzHufuIv4rGmuMpHbdiP-7" target="AzHufuIv4rGmuMpHbdiP-21">
          <mxGeometry relative="1" as="geometry" />
        </mxCell>
        <mxCell id="AzHufuIv4rGmuMpHbdiP-25" value="" style="edgeStyle=orthogonalEdgeStyle;rounded=0;orthogonalLoop=1;jettySize=auto;html=1;" edge="1" parent="WIyWlLk6GJQsqaUBKTNV-1" source="AzHufuIv4rGmuMpHbdiP-7" target="AzHufuIv4rGmuMpHbdiP-21">
          <mxGeometry relative="1" as="geometry" />
        </mxCell>
        <mxCell id="AzHufuIv4rGmuMpHbdiP-26" value="" style="edgeStyle=orthogonalEdgeStyle;rounded=0;orthogonalLoop=1;jettySize=auto;html=1;" edge="1" parent="WIyWlLk6GJQsqaUBKTNV-1" source="AzHufuIv4rGmuMpHbdiP-7" target="AzHufuIv4rGmuMpHbdiP-21">
          <mxGeometry relative="1" as="geometry" />
        </mxCell>
        <mxCell id="AzHufuIv4rGmuMpHbdiP-27" value="" style="edgeStyle=orthogonalEdgeStyle;rounded=0;orthogonalLoop=1;jettySize=auto;html=1;" edge="1" parent="WIyWlLk6GJQsqaUBKTNV-1" source="AzHufuIv4rGmuMpHbdiP-7" target="AzHufuIv4rGmuMpHbdiP-21">
          <mxGeometry relative="1" as="geometry" />
        </mxCell>
        <mxCell id="AzHufuIv4rGmuMpHbdiP-28" value="" style="edgeStyle=orthogonalEdgeStyle;rounded=0;orthogonalLoop=1;jettySize=auto;html=1;" edge="1" parent="WIyWlLk6GJQsqaUBKTNV-1" source="AzHufuIv4rGmuMpHbdiP-7" target="AzHufuIv4rGmuMpHbdiP-21">
          <mxGeometry relative="1" as="geometry" />
        </mxCell>
        <mxCell id="AzHufuIv4rGmuMpHbdiP-30" value="" style="edgeStyle=orthogonalEdgeStyle;rounded=0;orthogonalLoop=1;jettySize=auto;html=1;" edge="1" parent="WIyWlLk6GJQsqaUBKTNV-1" source="AzHufuIv4rGmuMpHbdiP-7" target="AzHufuIv4rGmuMpHbdiP-29">
          <mxGeometry relative="1" as="geometry" />
        </mxCell>
        <mxCell id="AzHufuIv4rGmuMpHbdiP-7" value="Form Palace Guard" style="whiteSpace=wrap;html=1;rounded=1;glass=0;strokeWidth=1;shadow=0;" vertex="1" parent="WIyWlLk6GJQsqaUBKTNV-1">
          <mxGeometry x="340" y="210" width="120" height="60" as="geometry" />
        </mxCell>
        <mxCell id="AzHufuIv4rGmuMpHbdiP-11" value="Holds c_Constantinople" style="shape=document;whiteSpace=wrap;html=1;boundedLbl=1;rounded=1;glass=0;strokeWidth=1;shadow=0;" vertex="1" parent="WIyWlLk6GJQsqaUBKTNV-1">
          <mxGeometry x="550" y="200" width="120" height="80" as="geometry" />
        </mxCell>
        <mxCell id="AzHufuIv4rGmuMpHbdiP-13" value="Reinforce Varangian Numbers" style="whiteSpace=wrap;html=1;rounded=1;glass=0;strokeWidth=1;shadow=0;" vertex="1" parent="WIyWlLk6GJQsqaUBKTNV-1">
          <mxGeometry x="200" y="210" width="120" height="60" as="geometry" />
        </mxCell>
        <mxCell id="AzHufuIv4rGmuMpHbdiP-18" value="" style="edgeStyle=orthogonalEdgeStyle;rounded=0;orthogonalLoop=1;jettySize=auto;html=1;" edge="1" parent="WIyWlLk6GJQsqaUBKTNV-1" source="AzHufuIv4rGmuMpHbdiP-15" target="AzHufuIv4rGmuMpHbdiP-17">
          <mxGeometry relative="1" as="geometry" />
        </mxCell>
        <mxCell id="AzHufuIv4rGmuMpHbdiP-15" value="Recruit Displaced Anglo-Saxon Warriors" style="whiteSpace=wrap;html=1;rounded=1;glass=0;strokeWidth=1;shadow=0;" vertex="1" parent="WIyWlLk6GJQsqaUBKTNV-1">
          <mxGeometry x="340" y="410" width="120" height="60" as="geometry" />
        </mxCell>
        <mxCell id="AzHufuIv4rGmuMpHbdiP-17" value="Current_Date &amp;gt; 1066&lt;br&gt;&lt;br&gt;Holder of k_England != Anglo-Saxon&amp;nbsp;" style="shape=document;whiteSpace=wrap;html=1;boundedLbl=1;rounded=1;glass=0;strokeWidth=1;shadow=0;" vertex="1" parent="WIyWlLk6GJQsqaUBKTNV-1">
          <mxGeometry x="550" y="390" width="120" height="100" as="geometry" />
        </mxCell>
        <mxCell id="AzHufuIv4rGmuMpHbdiP-19" value="Culture has Legionnaires innovation" style="shape=document;whiteSpace=wrap;html=1;boundedLbl=1;rounded=1;" vertex="1" parent="WIyWlLk6GJQsqaUBKTNV-1">
          <mxGeometry x="70" y="80" width="120" height="80" as="geometry" />
        </mxCell>
        <mxCell id="AzHufuIv4rGmuMpHbdiP-24" value="" style="edgeStyle=orthogonalEdgeStyle;rounded=0;orthogonalLoop=1;jettySize=auto;html=1;" edge="1" parent="WIyWlLk6GJQsqaUBKTNV-1" source="AzHufuIv4rGmuMpHbdiP-21" target="AzHufuIv4rGmuMpHbdiP-23">
          <mxGeometry relative="1" as="geometry" />
        </mxCell>
        <mxCell id="AzHufuIv4rGmuMpHbdiP-21" value="Recruit Rus&#39; Warriors" style="whiteSpace=wrap;html=1;rounded=1;glass=0;strokeWidth=1;shadow=0;" vertex="1" parent="WIyWlLk6GJQsqaUBKTNV-1">
          <mxGeometry x="410" y="310" width="120" height="60" as="geometry" />
        </mxCell>
        <mxCell id="AzHufuIv4rGmuMpHbdiP-23" value="Russian culture exists" style="shape=document;whiteSpace=wrap;html=1;boundedLbl=1;rounded=1;glass=0;strokeWidth=1;shadow=0;" vertex="1" parent="WIyWlLk6GJQsqaUBKTNV-1">
          <mxGeometry x="550" y="300" width="120" height="80" as="geometry" />
        </mxCell>
        <mxCell id="AzHufuIv4rGmuMpHbdiP-29" value="Restore the Praetorian Guard" style="whiteSpace=wrap;html=1;rounded=1;glass=0;strokeWidth=1;shadow=0;" vertex="1" parent="WIyWlLk6GJQsqaUBKTNV-1">
          <mxGeometry x="270" y="310" width="120" height="60" as="geometry" />
        </mxCell>
        <mxCell id="AzHufuIv4rGmuMpHbdiP-31" value="Current_Date &amp;gt;= 967&lt;br&gt;&lt;br&gt;Holds e_Byzantium &amp;amp; c_Constantinople&lt;br&gt;&lt;br&gt;Gold 1500" style="shape=document;whiteSpace=wrap;html=1;boundedLbl=1;rounded=1;" vertex="1" parent="WIyWlLk6GJQsqaUBKTNV-1">
          <mxGeometry x="-320" y="350" width="120" height="130" as="geometry" />
        </mxCell>
        <mxCell id="AzHufuIv4rGmuMpHbdiP-36" value="" style="edgeStyle=orthogonalEdgeStyle;rounded=0;orthogonalLoop=1;jettySize=auto;html=1;" edge="1" parent="WIyWlLk6GJQsqaUBKTNV-1" source="AzHufuIv4rGmuMpHbdiP-33" target="AzHufuIv4rGmuMpHbdiP-35">
          <mxGeometry relative="1" as="geometry" />
        </mxCell>
        <mxCell id="AzHufuIv4rGmuMpHbdiP-33" value="Restore Roman Empire" style="whiteSpace=wrap;html=1;rounded=1;" vertex="1" parent="WIyWlLk6GJQsqaUBKTNV-1">
          <mxGeometry x="-600" y="510" width="120" height="60" as="geometry" />
        </mxCell>
        <mxCell id="AzHufuIv4rGmuMpHbdiP-35" value="Has Reclaimed Justinian Borders" style="shape=document;whiteSpace=wrap;html=1;boundedLbl=1;rounded=1;" vertex="1" parent="WIyWlLk6GJQsqaUBKTNV-1">
          <mxGeometry x="-320" y="500" width="120" height="80" as="geometry" />
        </mxCell>
        <mxCell id="AzHufuIv4rGmuMpHbdiP-40" style="edgeStyle=orthogonalEdgeStyle;rounded=0;orthogonalLoop=1;jettySize=auto;html=1;" edge="1" parent="WIyWlLk6GJQsqaUBKTNV-1" source="AzHufuIv4rGmuMpHbdiP-39" target="AzHufuIv4rGmuMpHbdiP-3">
          <mxGeometry relative="1" as="geometry" />
        </mxCell>
        <mxCell id="AzHufuIv4rGmuMpHbdiP-39" value="Reclaim Balkan territories" style="rounded=1;whiteSpace=wrap;html=1;" vertex="1" parent="WIyWlLk6GJQsqaUBKTNV-1">
          <mxGeometry x="-600" y="230" width="120" height="60" as="geometry" />
        </mxCell>
        <mxCell id="AzHufuIv4rGmuMpHbdiP-44" value="" style="edgeStyle=orthogonalEdgeStyle;rounded=0;orthogonalLoop=1;jettySize=auto;html=1;" edge="1" parent="WIyWlLk6GJQsqaUBKTNV-1" source="AzHufuIv4rGmuMpHbdiP-42" target="AzHufuIv4rGmuMpHbdiP-43">
          <mxGeometry relative="1" as="geometry" />
        </mxCell>
        <mxCell id="AzHufuIv4rGmuMpHbdiP-45" style="edgeStyle=orthogonalEdgeStyle;rounded=0;orthogonalLoop=1;jettySize=auto;html=1;entryX=0.5;entryY=0;entryDx=0;entryDy=0;" edge="1" parent="WIyWlLk6GJQsqaUBKTNV-1" source="AzHufuIv4rGmuMpHbdiP-42" target="AzHufuIv4rGmuMpHbdiP-39">
          <mxGeometry relative="1" as="geometry" />
        </mxCell>
        <mxCell id="AzHufuIv4rGmuMpHbdiP-42" value="Humiliate Bulgars" style="rounded=1;whiteSpace=wrap;html=1;" vertex="1" parent="WIyWlLk6GJQsqaUBKTNV-1">
          <mxGeometry x="-600" y="90" width="120" height="60" as="geometry" />
        </mxCell>
        <mxCell id="AzHufuIv4rGmuMpHbdiP-43" value="Current_Date &amp;lt; 1066" style="shape=document;whiteSpace=wrap;html=1;boundedLbl=1;rounded=1;" vertex="1" parent="WIyWlLk6GJQsqaUBKTNV-1">
          <mxGeometry x="-320" y="80" width="120" height="80" as="geometry" />
        </mxCell>
      </root>
    </mxGraphModel>
  </diagram>
</mxfile>
